<!-- Africa, Natural Earth 1:110m (public domain). Generated by web/scripts/build-africa-map.py -->
<svg xmlns="http://www.w3.org/2000/svg" viewBox="0 0 700 730"><path fill="#000" stroke="#000" stroke-width="2" stroke-linejoin="round" d="M519 390l2 1 36 20 1 6 14 10 -5 12 1 6 6 3 1 3 -3 6 1 3 -1 5 3 6 4 10 4 2 -8 6 -11 4 -6 0 -3 3 -7 0 -3 1 -12 -3 -7 1 -3 -13 -4 -5 -2 -3 -9 -2 -6 -3 -6 -1 -4 -2 -5 -3 -5 -12 -6 -6 -2 -6 1 -5 -2 -9 5 0 3 -4 4 -5 3 -2 -1 -4 -2 -2 0 -4 3 -1 0 -6 -4 -6 4 -1 11 0 20 0zM93 103l0 1 0 2 0 15 -33 0 1 25 -10 1 -2 5 2 15 -39 0 -3 3 1 -4 22 -1 2 -4 4 -4 3 -14 14 -11 5 -12 3 -1 3 -8 8 -1 4 1 5 0 3 -2 6 0 0 -6 1 0zM473 425l2 9 -1 5 2 6 6 6 5 12 -4 -1 -13 2 -3 1 -3 7 3 4 -2 12 -1 10 2 2 7 4 3 -2 1 11 -8 -1 -4 -5 -3 -4 -8 -2 -2 -5 -6 3 -8 -1 -4 -5 -6 -1 -5 1 0 -3 -4 -1 -4 0 -7 1 -4 0 -2 1 0 -12 -3 -4 -1 -6 1 -6 -2 -4 0 -6 -12 0 1 -4 -5 0 -1 2 -6 1 -2 5 -2 3 -5 -2 -4 2 -6 1 -4 -6 -2 -3 -3 -6 -3 -7 -29 0 -4 1 -3 0 -4 1 -1 -3 2 -1 1 -5 1 -2 4 -2 3 1 3 -4 5 0 1 3 4 2 6 -7 6 -4 2 -4 0 -8 4 -10 5 -5 6 -5 1 -3 1 -3 1 -4 0 -6 1 -8 2 -7 3 -5 1 -6 0 -7 4 -5 6 -3 8 3 6 4 8 1 7 2 3 -6 1 -1 5 1 11 -5 4 2 3 0 2 -3 4 -1 7 1 6 1 4 -1 6 8 4 1 3 -2 5 1 5 -2 3 4 8 7 0 12 4 1 -3 4 -4 2 -4 5 -2 5 -1 8 -2 4 0 7 -3 3 0 6 -2 1 -1 5 3 5 0 12zM596 397l-6 -8 0 -37 9 -11 2 -3 7 -1 9 -7 13 0 28 -30 7 -8 4 -7 0 -5 0 -10 0 -4 4 0 4 -2 6 -1 4 -3 4 0 0 3 -1 5 0 6 -2 3 -2 11 -5 11 -6 13 -9 15 -9 11 -11 13 -10 9 -15 9 -10 8 -11 12 -2 5 -2 3zM572 427l-14 -10 -1 -6 -36 -20 -2 -1 0 -11 3 -4 5 -7 3 -7 -4 -12 -1 -5 -5 -6 6 -6 7 -7 5 2 0 5 4 4 7 0 12 8 3 0 3 0 2 1 7 1 3 -4 9 -5 4 4 7 0 -9 11 0 37 6 8 -7 4 -3 4 -3 1 -2 7 -3 4 -2 6 -4 4zM426 298l-8 -5 -3 -3 -1 -3 2 -4 0 -4 -6 -6 -1 -4 0 -3 -4 -3 0 -6 -2 -3 -4 0 1 -4 3 -4 -1 -4 3 -3 -2 -2 3 -6 4 -8 9 1 -1 -40 0 -4 12 0 0 -20 40 0 39 0 40 0 3 10 -2 2 1 10 4 12 4 2 5 4 -5 6 -7 1 -3 3 -1 7 -5 15 1 4 -1 8 -4 10 -6 5 -5 8 -1 4 -4 3 -3 10 0 9 0 -8 -2 0 0 -5 -1 -3 -5 -4 -1 -7 1 -8 -5 0 0 2 -6 0 2 3 1 6 -5 6 -5 7 -6 1 -8 -6 -4 2 -1 3 -5 2 0 2 -10 0 -2 -2 -7 0 -3 1 -3 -1 -5 -5 -2 -3 -7 1 -3 5 -3 9 -3 2 -3 1 7 4zM418 184l1 40 -9 -1 -4 8 -3 6 2 2 -3 3 1 4 -3 4 -1 4 4 0 2 3 0 6 4 3 0 3 -7 1 -5 4 -7 11 -9 5 -10 -1 -3 1 1 4 -5 3 -4 4 -13 4 -2 -2 -2 -1 -2 3 -8 1 1 -3 -3 -7 -1 -4 -5 -2 -5 -5 2 -5 4 1 3 -1 6 0 -6 -9 1 -7 -1 -6 -4 -7 1 -4 -6 -1 0 -6 -5 -4 5 -13 12 -9 1 -13 4 -21 2 -4 -4 -3 0 -3 -4 -3 -2 -16 10 -5 39 19 40 19zM343 666l5 -5 4 3 2 4 4 1 7 1 5 0 9 -5 0 -37 3 1 6 10 -1 6 2 3 7 -1 5 -4 5 -3 2 -5 5 -2 4 1 5 3 8 0 7 -2 1 -3 1 -5 6 -1 3 -4 3 -6 9 -8 14 -7 4 0 5 2 4 -1 5 1 5 14 2 7 -1 11 0 3 -5 -1 -3 0 -1 3 -2 4 0 3 6 6 6 -1 2 -5 7 0 -2 8 -1 8 -3 5 -7 5 -2 1 -4 5 -3 5 -5 7 -12 11 -7 6 -7 4 -11 4 -5 1 -1 2 -6 -1 -5 2 -11 -2 -6 1 -4 0 -11 4 -8 1 -6 4 -5 0 -4 -3 -3 -1 -5 -4 0 1 -2 -2 1 -6 -4 -7 3 -2 0 -7 -6 -10 -5 -8 -8 -13zM470 670l3 3 -3 4 -2 4 -5 1 -2 3 -4 1 -7 -7 5 -7 6 -3 4 -3 5 4zM492 603l-5 -1 -4 1 -5 -2 -4 0 -6 -5 -8 -1 -3 -6 0 -4 -4 -1 -11 -11 -3 -6 -3 -2 -3 -8 11 1 3 2 3 -1 6 -6 9 -8 3 -1 1 -4 6 -4 8 -1 0 4 9 0 4 2 3 2 4 1 5 3 0 13 -1 7 -1 7 2 3 -1 6 -2 1 -3 7 -10 12zM474 601l-14 7 -9 8 -3 6 -3 4 -6 1 -1 5 -1 3 -7 2 -8 0 -5 -3 -4 -1 -5 2 -2 5 -5 3 -5 4 -7 1 -2 -3 1 -6 -6 -10 -3 -1 0 -30 10 0 0 -35 8 -1 15 -3 4 4 6 -4 3 0 6 -2 2 0 3 8 3 2 3 6 11 11 4 1 0 4 3 6 8 1 6 5zM379 628l0 37 -9 5 -5 0 -7 -1 -4 -1 -2 -4 -4 -3 -5 5 -7 -8 -4 -7 -2 -10 -3 -7 -3 -15 0 -12 -1 -6 -4 -4 -5 -8 -6 -12 -2 -7 -8 -9 -1 -8 5 -2 6 -2 7 1 6 4 1 0 41 -1 7 5 24 1 18 -4 8 -2 7 1 4 2 0 1 -6 2 -3 0 -6 4 -4 -4 -15 3 -8 1 0 35 -10 0 0 30zM13 244l-4 -8 -5 -3 4 -2 5 -7 2 -5 4 -4 5 1 5 -2 5 0 5 3 7 3 6 7 6 7 1 6 2 6 3 3 1 3 0 4 -2 0 -5 -1 -1 1 -2 1 -7 -3 -5 0 -18 0 -3 1 -3 0 -6 1 -1 -8 9 1 2 -2 2 0 4 -2 4 2 4 0 5 -2 -2 -3 -4 2 -3 0 -4 -3 -3 0 -2 3 -11 0zM65 256l0 -4 -1 -3 -3 -3 -2 -6 -1 -6 4 -2 1 -6 4 0 6 3 6 -2 4 0 1 -2 41 0 2 -7 -2 -1 -5 -43 -5 -44 16 0 33 22 34 22 3 5 6 2 4 2 1 6 11 -1 0 23 -6 7 -1 6 -9 2 -13 1 -4 3 -6 1 -7 0 -2 -2 -6 1 -9 4 -2 4 -8 4 -1 3 -4 2 -5 -2 -3 3 -1 7 -8 8 0 3 -3 4 1 6 -4 2 -3 1 -1 -4 -3 1 -2 0 -2 3 -7 0 -3 -2 -1 1 -3 -3 0 -3 -1 -1 -2 1 0 -3 2 -3 -4 -4 -1 -3 -2 -2 -2 0 -3 1 -3 1 -3 3 -4 -1 -3 -3 -1 0 -3 1 -2 0 0 -3zM9 170l3 -3 39 0 -2 -15 2 -5 10 -1 -1 -25 33 0 0 -15 38 24 -16 0 5 44 5 43 2 1 -2 7 -41 0 -1 2 -4 0 -6 2 -6 -3 -4 0 -1 6 -4 2 -6 -7 -6 -7 -7 -3 -5 -3 -5 0 -5 2 -5 -1 -4 4 0 -6 2 -5 2 -9 -2 -10 -1 -5 1 -5 -2 -5 -6 -4zM207 317l-8 2 -3 -7 1 -23 -2 -2 -1 -5 -3 -4 -3 -3 1 -5 3 -1 2 -4 5 -1 3 -3 3 -3 3 0 8 5 0 4 2 6 -2 4 1 2 -5 7 -3 3 -2 6 0 6 0 16zM329 151l2 16 4 3 0 3 4 3 -2 4 -4 21 -1 13 -12 9 -5 13 5 4 0 6 6 1 -1 4 -3 1 0 3 -2 0 -7 -11 -2 0 -8 6 -8 -3 -5 -1 -3 2 -6 -1 -6 4 -5 1 -12 -5 -5 2 -5 0 -4 -4 -10 -4 -10 2 -3 2 -1 5 -3 4 -1 9 -8 -5 -3 0 -3 3 0 -7 -12 -3 0 -4 -6 -7 -1 -4 1 -5 6 -1 4 -3 13 -1 9 -2 1 -6 6 -7 0 -23 14 -4 29 -20 34 -19 16 5 5 5 8 -4zM207 317l0 -16 0 -6 2 -6 3 -3 5 -7 -1 -2 2 -4 -2 -6 0 -4 1 -9 3 -4 1 -5 3 -2 10 -2 10 4 4 4 5 0 5 -2 12 5 5 -1 6 -4 6 1 3 -2 5 1 8 3 8 -6 2 0 7 11 2 0 4 4 -1 2 -1 3 -8 8 -3 6 -1 6 -2 2 -2 7 -6 4 -1 5 -3 4 -1 4 -6 4 -6 -5 -4 1 -6 5 -3 1 -4 9 -3 7 -10 4 -4 -1 -4 3 -8 -1 -5 -6 -4 -7 -7 -7 -7 0 -9 0zM325 251l4 7 1 6 -1 7 6 9 -6 0 -3 1 -4 -1 -2 5 5 5 5 2 1 4 3 7 -1 3 -5 10 -3 2 0 7 1 5 -1 3 5 5 0 3 4 6 5 3 0 4 1 3 -1 6 -8 -3 -8 -2 -12 -1 -1 0 -6 1 -6 -1 -5 0 -17 0 2 -8 -4 -6 -5 -2 -2 -5 -2 -1 0 -3 3 -7 4 -9 3 -1 6 -5 4 -1 6 5 6 -4 1 -4 3 -4 1 -5 6 -4 2 -7 2 -2 1 -6 3 -6 8 -8 1 -3 1 -2 -4 -4 0 -3 3 -1zM189 270l-1 5 3 3 3 4 1 5 2 2 -1 23 3 7 -8 2 -3 -4 -2 -6 -1 -5 2 -9 -2 -4 -1 -8 0 -7 -4 -5 0 -3 9 0zM180 270l0 3 4 5 0 7 1 8 2 4 -2 9 1 5 2 6 3 4 -16 6 -6 3 -9 3 -9 -3 1 -4 -4 -9 2 -11 4 -8 -2 -14 -2 -8 1 -6 17 0 4 1 4 -2 4 1zM100 278l1 -1 3 2 7 0 2 -3 2 0 3 -1 1 4 3 -1 4 -2 4 2 2 4 5 2 3 -3 5 0 7 3 2 14 -4 8 -2 11 4 9 -1 4 -4 0 -7 -2 -6 0 -12 2 -7 3 -10 4 -2 -1 1 -8 1 -1 -1 -4 -4 -4 -3 -1 -3 -3 2 -4 -1 -5 1 -3 1 0 1 -4 -1 -2 1 -2 4 -1 -3 -8 -2 -4 1 -3 2 -1zM43 254l5 0 7 3 2 -1 1 -1 5 1 2 0 0 3 2 0 3 -1 1 0 3 3 4 1 3 -3 3 -1 3 -1 2 0 2 2 1 3 4 4 -2 3 0 3 2 -1 1 1 0 3 3 3 -2 1 -1 3 2 4 3 8 -4 1 -1 2 1 2 -1 4 -1 0 -3 0 -2 4 -3 0 -2 -2 1 -4 -5 -6 -2 1 -2 0 -3 1 0 -4 -2 -3 1 -3 -2 -4 -3 -3 -8 0 -3 1 -2 1 -2 2 -1 3 -5 4 -5 -6 -4 -4 -2 -1 -3 -2 -1 -5 -1 -2 -3 -1 4 -5 3 0 3 -2 2 0 2 -1 -1 -3 1 -1 0 -4zM13 256l6 -1 3 0 3 -1 18 0 0 4 -1 1 1 3 -2 1 -2 0 -3 2 -3 0 -4 5 -6 -5 -4 0 -2 -3 0 -2 -3 -2 -1 -2zM96 303l-1 3 1 5 -2 4 3 3 3 1 4 4 1 4 -1 1 -1 8 -3 0 -10 -4 -9 -8 -9 -5 -6 -7 2 -3 1 -3 4 -5 5 -5 2 0 2 -1 5 6 -1 4 2 2 3 0 2 -4 3 0zM48 291l5 -4 1 -3 2 -2 2 -1 3 -1 8 0 3 3 2 4 -1 3 2 3 0 4 3 -1 -5 5 -4 5 -1 3 -2 3 -3 -1 -7 -4 -5 -5 -2 -4 -1 -7zM126 276l-1 -6 3 -4 0 -3 8 -8 1 -7 3 -3 5 2 4 -2 1 -3 8 -4 2 -4 9 -4 6 -1 2 2 7 0 -1 5 1 4 6 7 0 4 12 3 0 7 -3 3 -5 1 -2 4 -3 1 -9 0 -4 -1 -4 2 -4 -1 -17 0 -1 6 2 8 -7 -3 -5 0 -3 3 -5 -2 -2 -4 -4 -2zM454 328l-4 1 -6 -1 -7 -1 -4 1 -2 3 -3 0 -4 -2 -11 5 -5 -1 -1 1 -3 6 -7 -2 -8 -1 -6 -4 -8 -3 -6 3 -4 5 0 7 -7 -1 -7 -1 -6 5 -5 9 -1 -3 0 -4 -5 -3 -4 -6 0 -3 -5 -5 1 -3 -1 -5 0 -7 3 -2 5 -10 8 -1 2 -3 2 1 2 2 13 -4 4 -4 5 -3 -1 -4 3 -1 10 1 9 -5 7 -11 5 -4 7 -1 1 4 6 6 0 4 -2 4 1 3 3 3 8 5 5 4 0 3 7 5 4 5 3 6 7 3 2 4zM365 345l-1 6 -3 5 -2 7 -1 8 0 6 -1 4 -1 3 -1 3 -6 5 -5 5 -4 10 0 8 -2 4 -6 4 -6 7 -4 -2 -1 -3 -5 0 -3 4 -3 -1 -4 -4 -3 2 -4 4 -8 -10 8 -6 -4 -6 3 -3 7 -1 1 -5 5 5 9 1 3 -5 1 -7 -1 -7 -5 -6 5 -12 -3 -2 -7 1 -3 -5 1 -5 12 1 8 2 8 3 1 -6 5 -9 6 -5 7 1 7 1zM293 357l5 0 6 1 6 -1 1 0 -1 5 3 5 7 -1 3 2 -5 12 5 6 1 7 -1 7 -3 5 -9 -1 -5 -5 -1 5 -7 1 -3 3 4 6 -8 6 -10 -10 -7 -9 -6 -10 0 -3 2 -3 3 -8 2 -7 3 -1 15 0 0 -12zM276 357l17 0 0 12 -15 0 -3 1 -2 -2 3 -11zM487 463l5 3 4 2 6 1 6 3 4 5 3 8 -2 3 -2 8 2 8 -3 4 -3 9 5 3 -30 8 1 7 -8 1 -6 4 -1 4 -3 1 -9 8 -6 6 -3 1 -3 -2 -11 -1 -2 0 0 -1 -4 -2 -7 -1 -8 2 -6 -6 -7 -8 0 -32 21 0 -1 -3 2 -4 -2 -5 1 -5 -1 -3 4 1 0 3 5 -1 6 1 4 5 8 1 6 -3 2 5 8 2 3 4 4 5 8 1 -1 -11 -3 2 -7 -4 -2 -2 1 -10 2 -12 -3 -4 3 -7 3 -1 13 -2 4 1zM508 472l9 2 2 3 4 5 3 13 -3 8 3 13 3 0 4 3 4 7 1 13 -5 2 -3 7 -6 -6 -1 -7 2 -5 0 -4 -4 -2 -3 1 -6 -5 -5 -3 3 -9 3 -4 -2 -8 2 -8 2 -3 -3 -8 -4 -5zM526 495l7 -1 12 3 3 -1 7 0 3 -3 6 0 11 -4 8 -6 2 5 -1 10 2 8 0 16 2 5 -3 7 -4 7 -6 6 -10 4 -11 5 -11 11 -4 1 -7 8 -4 2 -1 7 5 8 2 5 0 3 2 0 -1 10 -1 4 2 2 -1 4 -5 4 -8 3 -12 6 -4 3 1 4 2 1 -1 5 -7 0 -1 -4 -2 -5 0 -3 1 -11 -2 -7 -5 -14 10 -12 3 -7 2 -1 1 -6 -2 -3 1 -7 1 -7 0 -13 -5 -3 -4 -1 -3 -2 -4 -2 -9 0 0 -4 -1 -7 30 -8 6 5 3 -1 4 2 0 4 -2 5 1 7 6 6 3 -7 5 -2 -1 -13 -4 -7 -4 -3 -3 0 -3 -13 3 -8zM501 647l-2 5 -6 1 -6 -6 0 -3 2 -4 1 -3 3 0 5 1 2 5 1 4zM310 428l-4 2 -1 2 -1 5 -2 1 -3 -8 4 -4 3 -2 4 4zM303 441l4 -1 3 0 4 -1 29 0 3 7 3 6 2 3 4 6 6 -1 4 -2 5 2 2 -3 2 -5 6 -1 1 -2 5 0 -1 4 12 0 0 6 2 4 -1 6 1 6 3 4 0 12 2 -1 4 0 7 -1 4 0 1 3 -1 5 2 5 -2 4 1 3 -21 0 0 32 7 8 6 6 -18 4 -24 -1 -7 -5 -41 1 -1 0 -6 -4 -7 -1 -6 2 -5 2 -1 -6 2 -9 3 -9 1 -5 3 -9 2 -4 6 -6 3 -5 1 -7 0 -6 -3 -3 -3 -6 -2 -6 0 -2 3 -4 -3 -10 -2 -7 -5 -6 1 -2zM485 404l0 4 2 2 1 4 -3 2 -4 5 -3 4 -5 0 0 -12 -3 -5 6 1 3 -6 6 1zM675 505l3 4 3 7 1 12 3 4 -1 5 -2 3 -3 -6 -2 3 2 8 -1 4 -3 2 -1 9 -4 11 -5 14 -6 19 -4 14 -4 11 -8 3 -9 4 -6 -3 -8 -3 -2 -5 -1 -9 -4 -8 0 -7 1 -8 5 -1 0 -4 5 -7 1 -7 -3 -4 -2 -7 0 -9 3 -5 1 -7 5 0 6 -2 4 -2 4 0 6 -6 8 -6 3 -5 -1 -4 4 1 5 -7 1 -6 3 -5 3 5zM13 244l11 0 2 -3 3 0 4 3 3 0 4 -2 2 3 -5 2 -4 0 -4 -2 -4 2 -2 0 -2 2 -9 -1 1 -4zM275 77l-4 -18 -7 -4 0 -2 -8 -6 -1 -8 6 -6 3 -8 -2 -9 2 -5 11 -4 7 1 0 5 8 -4 1 2 -5 5 0 5 3 2 -1 9 -7 5 2 5 6 0 2 5 4 2 -1 7 -5 3 -3 3 -6 4 1 4 -1 5 -5 2zM93 106l0 -2 0 -1 0 -11 16 -8 10 -1 9 -3 3 -5 12 -4 1 -7 5 -1 5 -4 13 -2 2 -4 -3 -2 -3 -10 -1 -6 -4 -7 10 -5 11 -2 6 -4 10 -3 17 -2 16 -1 5 2 10 -4 10 0 4 2 7 0 -2 5 2 9 -3 8 -6 6 1 8 8 6 0 2 7 4 4 18 3 9 1 4 -2 9 1 4 -2 6 1 6 -4 4 6 7 0 5 4 5 5 -2 8 5 4 6 -34 19 -29 20 -14 4 -11 1 -1 -6 -4 -2 -6 -2 -3 -5 -34 -22 -33 -22 -38 -24zM544 236l-1 -4 5 -15 1 -7 3 -3 7 -1 5 -6 6 12 3 9 5 5 14 9 5 6 6 6 3 3 5 3 -3 2 -4 0 -4 -4 -4 -6 -4 -3 -3 -3 -9 -4 -7 0 -2 -2 -6 2 -6 -5 -3 8 -12 -2zM158 28l4 7 1 6 3 10 3 2 -2 4 -13 2 -5 4 -5 1 -1 7 -12 4 -3 5 -9 3 -10 1 -16 8 0 11 -1 0 0 6 -6 0 -3 2 -5 0 -4 -1 -8 1 -3 8 -3 1 -5 12 -14 11 -3 14 -4 4 -2 4 -22 1 0 -5 4 -3 3 -5 0 -3 3 -7 6 -7 3 -1 3 -6 0 -5 4 -7 6 -3 7 -10 0 -1 5 -3 9 -1 8 -7 5 -3 8 -8 -2 -13 4 -8 1 -6 6 -6 10 -5 8 -4 7 -10 3 -7 7 0 6 5 10 -1 10 2 4 0zM549 160l-40 0 -39 0 -40 0 0 -37 0 -35 -3 -8 3 -7 -2 -4 4 -5 13 0 10 3 10 3 4 1 8 -3 4 -3 9 -1 7 2 3 5 2 -4 8 3 8 0 5 -2 5 14 1 3 -3 4 -2 8 -2 5 -3 2 -3 -4 -5 -4 -7 -15 -1 1 4 11 6 10 8 16 4 5 3 6 9 11 -2 1 0 7 12 9 2 2zM430 160l0 20 -12 0 0 4 -40 -19 -39 -19 -10 5 -8 4 -5 -5 -16 -5 -4 -6 -8 -5 -5 2 -4 -5 0 -5 -6 -7 4 -4 -1 -6 2 -6 -1 -4 2 -9 -1 -4 -3 -9 5 -2 1 -5 -1 -4 6 -4 3 -3 5 -3 1 -7 12 3 4 -1 8 2 13 4 5 9 9 2 14 4 11 5 5 -2 5 -5 -3 -8 3 -4 8 -5 6 -1 14 2 3 4 4 0 3 2 10 1 3 3 -4 5 2 4 -3 7 3 8 0 35 0 37zM658 300l-28 30 -13 0 -9 7 -7 1 -2 3 -7 0 -4 -4 -9 5 -3 4 -7 -1 -2 -1 -3 0 -3 0 -12 -8 -7 0 -4 -4 0 -5 -5 -2 -6 -11 -4 -2 -2 -4 -5 -5 -6 -1 3 -6 5 0 2 -3 0 -9 3 -10 4 -3 1 -4 5 -8 6 -5 4 -10 1 -8 12 2 3 -8 6 5 6 -2 2 2 7 0 9 4 3 3 4 3 4 6 4 4 -4 4 -3 5 0 2 1 3 5 1 3 -1 2 2 -2 3 3 6 4 5 4 3 32 12 9 0zM604 255l4 0 3 -2 2 3 0 4 -6 3 4 2 -3 6 -2 -2 -3 1 -5 -1 -1 -3 0 -2 3 -5 4 -4zM669 266l0 4 0 10 0 5 -4 7 -7 8 -9 0 -32 -12 -4 -3 -4 -5 -3 -6 2 -3 3 -6 4 2 2 4 4 5 5 0 10 -3 10 -1 9 -3 5 -1 4 -2 5 0zM519 390l-20 0 -11 0 -4 1 -6 3 -2 -1 0 -7 2 -4 1 -8 2 -5 4 -5 4 -2 3 -4 -4 -1 0 -12 4 -3 7 2 8 -2 7 0 6 -4 5 6 1 5 4 12 -3 7 -5 7 -3 4 0 11zM484 391l4 6 0 6 -3 1 -6 -1 -3 6 -6 -1 1 -5 2 -1 0 -6 3 -3 2 1 6 -3zM488 345l-8 -7 -3 -4 -5 2 -5 -1 -3 2 -4 -1 -6 -8 -2 -4 -7 -3 -3 -6 -4 -5 -7 -5 0 -3 -5 -4 -7 -4 3 -1 3 -2 3 -9 3 -5 7 -1 2 3 5 5 3 1 3 -1 7 0 2 2 10 0 0 -2 5 -2 1 -3 4 -2 8 6 6 -1 5 -7 5 -6 -1 -6 -2 -3 6 0 0 -2 5 0 -1 8 1 7 5 4 1 3 0 5 2 0 0 8 -2 3 -5 0 -3 6 6 1 5 5 2 4 4 2 6 11 -7 7 -6 6 -6 4 -7 0 -8 2 -7 -2 -4 3z"/></svg>
